<svg xmlns="http://www.w3.org/2000/svg" width="189" height="40" fill="none"><path fill="#ADADCC" d="M187 4h-2l2-2v2Z"/><path fill="#606080" d="M189 2h-2l2-2v2Z"/><path fill="#ADADCC" d="M4 38H2l2-2v2Z"/><path fill="#606080" d="M2 36h2l-2 2v-2Z"/><path fill="#ADADCC" d="M187 0h2l-2 2V0Z"/><path fill="#606080" d="M2 40H0l2-2v2Z"/><path fill="#ADADCC" d="M0 38h2l-2 2v-2Z"/><path fill="#606080" d="M185 2h2l-2 2V2Z"/><path fill="#ADADCC" d="M4 36h183v2H4z"/><path fill="#606080" d="M4 2h181v2H4z"/><path fill="#ADADCC" d="M2 0h185v2H2z"/><path fill="#606080" d="M2 38h185v2H2z"/><path fill="#ADADCC" d="M185 4h2v32h-2z"/><path fill="#606080" d="M2 2h2v34H2zM187 2h2v38h-2z"/><path fill="#ADADCC" d="M0 0h2v38H0z"/></svg>
