<svg width="17" height="16" viewBox="0 0 17 16" fill="none" xmlns="http://www.w3.org/2000/svg">
<path d="M13.8333 6H7.83333C7.09695 6 6.5 6.59695 6.5 7.33333V13.3333C6.5 14.0697 7.09695 14.6667 7.83333 14.6667H13.8333C14.5697 14.6667 15.1667 14.0697 15.1667 13.3333V7.33333C15.1667 6.59695 14.5697 6 13.8333 6Z" stroke="#32334A" stroke-width="1.33" stroke-linecap="round" stroke-linejoin="round"/>
<path d="M3.83337 10H3.16671C2.81309 10 2.47395 9.85956 2.2239 9.60952C1.97385 9.35947 1.83337 9.02033 1.83337 8.66671V2.66671C1.83337 2.31309 1.97385 1.97395 2.2239 1.7239C2.47395 1.47385 2.81309 1.33337 3.16671 1.33337H9.16671C9.52033 1.33337 9.85947 1.47385 10.1095 1.7239C10.3596 1.97395 10.5 2.31309 10.5 2.66671V3.33337" stroke="#32334A" stroke-width="1.33" stroke-linecap="round" stroke-linejoin="round"/>
</svg>
