<svg width="17" height="16" viewBox="0 0 17 16" fill="none" xmlns="http://www.w3.org/2000/svg">
<path d="M7.83337 2.66663H3.16671C2.81309 2.66663 2.47395 2.8071 2.2239 3.05715C1.97385 3.3072 1.83337 3.64634 1.83337 3.99996V13.3333C1.83337 13.6869 1.97385 14.0261 2.2239 14.2761C2.47395 14.5261 2.81309 14.6666 3.16671 14.6666H12.5C12.8537 14.6666 13.1928 14.5261 13.4428 14.2761C13.6929 14.0261 13.8334 13.6869 13.8334 13.3333V8.66663" stroke="#32334A" stroke-width="1.33" stroke-linecap="round" stroke-linejoin="round"/>
<path d="M12.8334 1.66665C13.0986 1.40144 13.4583 1.25244 13.8334 1.25244C14.2084 1.25244 14.5682 1.40144 14.8334 1.66665C15.0986 1.93187 15.2476 2.29158 15.2476 2.66665C15.2476 3.04173 15.0986 3.40144 14.8334 3.66665L8.50004 9.99999L5.83337 10.6667L6.50004 7.99999L12.8334 1.66665Z" stroke="#374151" stroke-width="1.33" stroke-linecap="round" stroke-linejoin="round"/>
</svg>
