<svg width="15" height="14" viewBox="0 0 15 14" fill="none" xmlns="http://www.w3.org/2000/svg">
<path fill-rule="evenodd" clip-rule="evenodd" d="M0.625034 4.48086L2.05372 5.22591L1.61398 6.05962L0.185303 5.31457L0.625034 4.48086Z" fill="#8D74F7"/>
<path fill-rule="evenodd" clip-rule="evenodd" d="M2.05372 2.29898L3.22935 3.39748L2.58101 4.08353L1.40538 2.98503L2.05372 2.29898Z" fill="#8D74F7"/>
<path fill-rule="evenodd" clip-rule="evenodd" d="M4.23945 0.867575L4.96765 2.29899L4.12282 2.72393L3.39463 1.29251L4.23945 0.867575Z" fill="#8D74F7"/>
<path fill-rule="evenodd" clip-rule="evenodd" d="M13.6477 4.48086L12.2191 5.22591L12.6588 6.05962L14.0875 5.31457L13.6477 4.48086Z" fill="#8D74F7"/>
<path fill-rule="evenodd" clip-rule="evenodd" d="M12.2191 2.29898L11.0434 3.39748L11.6918 4.08353L12.8674 2.98503L12.2191 2.29898Z" fill="#8D74F7"/>
<path fill-rule="evenodd" clip-rule="evenodd" d="M10.0333 0.867575L9.30513 2.29899L10.15 2.72393L10.8781 1.29251L10.0333 0.867575Z" fill="#8D74F7"/>
<path fill-rule="evenodd" clip-rule="evenodd" d="M7.67736 0.397827V2.00196H6.7306V0.397827L7.67736 0.397827Z" fill="#8D74F7"/>
<path d="M7.67736 7.51974C7.67736 7.89112 7.37459 8.19218 7.0011 8.19218C6.62761 8.19218 6.32484 7.89112 6.32484 7.51974C6.32484 7.14836 6.62761 6.8473 7.0011 6.8473C7.37459 6.8473 7.67736 7.14836 7.67736 7.51974Z" fill="#8D74F7"/>
<path fill-rule="evenodd" clip-rule="evenodd" d="M7.0011 13.5144C10.3307 13.5144 13.0299 10.8305 13.0299 7.51974C13.0299 4.20896 10.3307 1.52504 7.0011 1.52504C3.67151 1.52504 0.972347 4.20896 0.972347 7.51974C0.972347 10.8305 3.67151 13.5144 7.0011 13.5144ZM7.0011 9.84642C8.2934 9.84642 9.341 8.80473 9.341 7.51974C9.341 6.23475 8.2934 5.19306 7.0011 5.19306C5.70881 5.19306 4.6612 6.23475 4.6612 7.51974C4.6612 8.80473 5.70881 9.84642 7.0011 9.84642ZM6.84846 11.4718C5.0433 11.442 3.2891 10.3574 1.08622 8.33709L1.17792 8.23823C3.37852 10.2564 5.09989 11.3084 6.8507 11.3374C8.601 11.3663 10.4022 10.3728 12.7628 8.23792L12.8538 8.33741C10.4893 10.4759 8.65413 11.5017 6.84846 11.4718ZM1.08622 6.78319C3.2891 4.76292 5.0433 3.67827 6.84846 3.64846C8.65413 3.61863 10.4893 4.64442 12.8538 6.78288L12.7628 6.88237C10.4022 4.74745 8.601 3.75402 6.8507 3.78292C5.09989 3.81184 3.37852 4.86388 1.17792 6.88205L1.08622 6.78319Z" fill="#8D74F7"/>
</svg>
