<svg width="15" height="14" viewBox="0 0 15 14" fill="none" xmlns="http://www.w3.org/2000/svg">
<path fill-rule="evenodd" clip-rule="evenodd" d="M7.00117 13.5145C10.3308 13.5145 13.0299 10.8306 13.0299 7.51978C13.0299 4.209 10.3308 1.52509 7.00117 1.52509C3.67158 1.52509 0.972412 4.209 0.972412 7.51978C0.972412 10.8306 3.67158 13.5145 7.00117 13.5145Z" fill="#181929"/>
<path d="M13.5725 6.375C13.5725 9.3422 11.153 11.75 8.16551 11.75C5.17799 11.75 2.75854 9.3422 2.75854 6.375C2.75854 3.4078 5.17799 1 8.16551 1C11.153 1 13.5725 3.4078 13.5725 6.375Z" stroke="#181929" stroke-width="0.5"/>
<path d="M14.3268 5.0625C14.3268 7.71904 12.1606 9.875 9.48555 9.875C6.81046 9.875 4.64429 7.71904 4.64429 5.0625C4.64429 2.40596 6.81046 0.25 9.48555 0.25C12.1606 0.25 14.3268 2.40596 14.3268 5.0625Z" stroke="#181929" stroke-width="0.5"/>
</svg>
