<svg width="512" height="512" viewBox="0 0 512 512" fill="none" xmlns="http://www.w3.org/2000/svg">
<rect width="512" height="512" fill="#32334A"/>
<path d="M406.667 181.246C406.667 175.219 401.781 170.333 395.754 170.333H328.377C281.64 170.333 245.792 208.538 245.792 255.667C245.792 302.795 281.64 341 328.377 341H395.754C401.781 341 406.667 336.114 406.667 330.088V330.088C406.667 324.061 401.781 319.176 395.754 319.176H328.377C293.593 319.176 265.396 290.742 265.396 255.667C265.396 220.592 293.593 192.158 328.377 192.158H395.754C401.781 192.158 406.667 187.272 406.667 181.246V181.246Z" fill="#F5F5FC"/>
<path d="M176.625 170.333H235.843C241.87 170.333 246.756 175.219 246.756 181.246V181.246C246.756 187.272 241.87 192.158 235.843 192.158H176.625C145.531 192.158 119.7 214.879 114.57 244.754H254.915V266.579H114.57C119.7 296.454 145.531 319.176 176.625 319.176H235.843C241.87 319.176 246.756 324.061 246.756 330.088V330.088C246.756 336.114 241.87 341 235.843 341H176.625C129.888 341 92 302.795 92 255.667C92 208.538 129.888 170.333 176.625 170.333Z" fill="#F5F5FC"/>
</svg>
