<svg width="540" height="540" viewBox="0 0 540 540" fill="none" xmlns="http://www.w3.org/2000/svg">
<path fill-rule="evenodd" clip-rule="evenodd" d="M215.746 209.444C184.41 209.444 158.437 232.409 153.74 262.427C153.693 262.726 153.648 263.026 153.606 263.326C153.195 266.228 152.982 269.193 152.982 272.208C152.982 275.222 153.195 278.188 153.606 281.089C153.652 281.416 153.701 281.742 153.752 282.067C158.482 312.047 184.437 334.972 215.746 334.972H260.997C264.732 334.972 267.76 331.944 267.76 328.209V325.682C267.76 321.947 264.732 318.919 260.997 318.919H215.746C199.242 318.919 184.041 310.011 175.834 297.141C172.727 292.269 170.622 286.828 169.829 281.089C169.79 280.805 169.754 280.519 169.721 280.234H267.527C267.561 280.519 267.598 280.804 267.636 281.089C268.392 286.714 269.859 292.099 271.947 297.141C281.164 319.4 302.492 334.972 328.296 334.972H379.598C383.333 334.972 386.361 331.944 386.361 328.209V325.682C386.361 321.947 383.333 318.919 379.598 318.919H328.296C311.666 318.919 297.065 310.229 288.788 297.141C285.587 292.08 283.332 286.362 282.271 280.234C281.82 277.626 281.584 274.944 281.584 272.208C281.584 269.471 281.82 266.789 282.271 264.182C283.332 258.054 285.587 252.335 288.788 247.274C297.065 234.187 311.666 225.496 328.296 225.496H379.598C383.333 225.496 386.361 222.468 386.361 218.733V216.207C386.361 212.472 383.333 209.444 379.598 209.444H328.296C302.492 209.444 281.164 225.015 271.947 247.274C269.859 252.316 268.392 257.701 267.636 263.326C267.598 263.611 267.561 263.896 267.527 264.182H169.721C169.753 263.896 169.787 263.611 169.824 263.326C170.591 257.496 172.601 252.08 175.57 247.274C183.712 234.093 199.064 225.496 215.746 225.496H260.997C264.732 225.496 267.76 222.468 267.76 218.733V216.207C267.76 212.472 264.732 209.444 260.997 209.444H215.746Z" fill="#E8E8F4"/>
<path fill-rule="evenodd" clip-rule="evenodd" d="M279.595 216.206V216.279C292.379 204.68 309.326 197.608 328.296 197.608H379.598C389.869 197.608 398.196 205.935 398.196 216.206V218.733C398.196 229.004 389.869 237.331 379.598 237.331H328.296C315.892 237.331 304.99 243.798 298.791 253.6C296.401 257.378 294.723 261.637 293.933 266.201C293.596 268.144 293.419 270.15 293.419 272.207C293.419 274.264 293.596 276.27 293.933 278.214C294.723 282.777 296.401 287.037 298.791 290.815C304.99 300.617 315.892 307.084 328.296 307.084H379.598C389.869 307.084 398.196 315.41 398.196 325.682V328.208C398.196 338.48 389.869 346.806 379.598 346.806H328.296C309.326 346.806 292.379 339.735 279.595 328.135V328.208C279.595 338.48 271.268 346.806 260.997 346.806H215.746C178.522 346.806 147.685 319.554 142.062 283.911C142 283.524 141.942 283.137 141.887 282.748C141.399 279.299 141.147 275.779 141.147 272.207C141.147 268.636 141.399 265.116 141.887 261.666C141.938 261.309 141.991 260.952 142.047 260.596C147.631 224.908 178.49 197.608 215.746 197.608H260.997C271.268 197.608 279.595 205.935 279.595 216.206ZM267.527 280.233C267.561 280.519 267.598 280.804 267.636 281.088C268.392 286.714 269.859 292.099 271.946 297.141C281.164 319.4 302.492 334.971 328.296 334.971H379.598C383.333 334.971 386.361 331.943 386.361 328.208V325.682C386.361 321.947 383.333 318.919 379.598 318.919H328.296C311.665 318.919 297.065 310.228 288.788 297.141C285.587 292.08 283.332 286.361 282.271 280.233C281.82 277.626 281.584 274.944 281.584 272.207C281.584 269.471 281.82 266.789 282.271 264.181C283.332 258.053 285.587 252.335 288.788 247.274C297.065 234.186 311.665 225.496 328.296 225.496H379.598C383.333 225.496 386.361 222.468 386.361 218.733V216.206C386.361 212.471 383.333 209.444 379.598 209.444H328.296C302.492 209.444 281.164 225.015 271.946 247.274C269.859 252.316 268.392 257.701 267.636 263.326C267.598 263.611 267.561 263.896 267.527 264.181H169.721C169.753 263.895 169.787 263.61 169.824 263.326C170.332 259.465 171.385 255.787 172.9 252.346C173.673 250.591 174.567 248.898 175.57 247.274C183.712 234.093 199.064 225.496 215.746 225.496H260.997C264.732 225.496 267.76 222.468 267.76 218.733V216.206C267.76 212.471 264.732 209.444 260.997 209.444H215.746C184.41 209.444 158.437 232.408 153.74 262.426C153.693 262.725 153.648 263.025 153.606 263.326C153.195 266.227 152.982 269.193 152.982 272.207C152.982 275.222 153.195 278.187 153.606 281.088C153.652 281.415 153.701 281.741 153.752 282.067C158.482 312.046 184.437 334.971 215.746 334.971H260.997C264.732 334.971 267.76 331.943 267.76 328.208V325.682C267.76 321.947 264.732 318.919 260.997 318.919H215.746C199.242 318.919 184.041 310.01 175.834 297.141C174.794 295.51 173.867 293.816 173.063 292.069C171.465 288.594 170.357 284.907 169.829 281.088C169.79 280.804 169.754 280.519 169.721 280.233H267.527ZM186.384 252.346H257.772C258.643 249.053 259.728 245.847 261.012 242.746C261.801 240.839 262.667 238.972 263.604 237.149C262.752 237.269 261.882 237.331 260.997 237.331H215.746C203.534 237.331 192.479 243.404 186.384 252.346ZM257.772 291.58H186.384C192.479 300.521 203.533 306.595 215.746 306.595H260.997C261.882 306.595 262.752 306.657 263.604 306.776C262.667 304.954 261.801 303.087 261.012 301.18C259.728 298.079 258.643 294.873 257.772 291.58Z" fill="#32334A"/>
</svg>
