<svg width="654" height="654" viewBox="0 0 654 654" fill="none" xmlns="http://www.w3.org/2000/svg">
<g clip-path="url(#clip0_61_593)">
<path d="M46.4899 285.42C44.2299 283.6 42.6599 281.36 41.7799 278.68C40.8999 276 40.7799 273.04 41.4399 269.78C42.0899 266.57 43.3899 263.87 45.3399 261.7C47.2899 259.53 49.6799 257.99 52.5099 257.09C55.3399 256.19 58.3999 256.07 61.6999 256.74L63.7499 257.16L58.7099 282.1L53.1899 280.99L56.5199 264.53C54.9499 264.35 53.5299 264.49 52.2599 264.97C50.9799 265.45 49.9199 266.19 49.0699 267.2C48.2199 268.21 47.6499 269.45 47.3499 270.9C46.9999 272.61 47.1199 274.15 47.6799 275.52C48.2499 276.89 49.2799 278.03 50.7599 278.95C52.2399 279.87 54.2499 280.59 56.7699 281.1C60.2799 281.81 63.0799 281.64 65.1899 280.59C67.2899 279.54 68.6199 277.65 69.1799 274.91C69.5999 272.85 69.4799 271.12 68.8299 269.72C68.1799 268.32 67.1099 267.31 65.6299 266.7L67.3299 258.28C70.9599 259.68 73.4599 261.91 74.8299 264.95C76.1999 267.99 76.4199 271.76 75.5199 276.26C74.8399 279.6 73.5599 282.37 71.6699 284.55C69.7799 286.73 67.4299 288.23 64.6199 289.05C61.8099 289.86 58.6499 289.92 55.1399 289.21C51.6299 288.5 48.7499 287.24 46.4899 285.42Z" fill="#313245"/>
<path d="M51.6199 234.01L78.6499 235.09L57.3699 218.52L60.3599 210.46L87.5299 233.56L84.3099 242.23L48.6499 242.01L51.6199 234.02V234.01Z" fill="#313245"/>
<path d="M72.81 201.54C71.22 199.12 70.41 196.5 70.39 193.68C70.37 190.86 71.17 188 72.8 185.11C74.4 182.25 76.47 180.09 78.99 178.62C81.51 177.15 84.26 176.43 87.23 176.44C90.2 176.45 93.15 177.28 96.08 178.92L97.91 179.94L85.46 202.13L80.55 199.38L88.76 184.74C87.33 184.09 85.93 183.79 84.57 183.85C83.21 183.91 81.97 184.3 80.85 185C79.73 185.7 78.81 186.7 78.08 188C77.22 189.53 76.86 191.03 76.98 192.5C77.1 193.97 77.73 195.38 78.86 196.71C79.99 198.04 81.67 199.34 83.92 200.6C87.04 202.35 89.76 203.05 92.09 202.7C94.41 202.35 96.26 200.95 97.63 198.51C98.66 196.68 99.08 195 98.89 193.46C98.7 191.93 97.99 190.64 96.78 189.61L100.98 182.12C104.01 184.57 105.71 187.45 106.07 190.77C106.44 194.08 105.5 197.74 103.25 201.75C101.58 204.73 99.51 206.96 97.05 208.46C94.58 209.96 91.89 210.66 88.96 210.58C86.03 210.5 83.01 209.57 79.89 207.82C76.77 206.07 74.41 203.98 72.82 201.56L72.81 201.54Z" fill="#313245"/>
<path d="M94.9 152.43L121.6 172.67L116.69 179.15L89.99 158.91L94.9 152.43ZM106.47 149.84C105.44 151.2 104.76 152.62 104.43 154.1C104.1 155.58 104.14 156.96 104.53 158.25C104.92 159.54 105.69 160.61 106.84 161.48L105.14 163.07C102.64 161.17 100.81 159.09 99.66 156.82C98.51 154.55 97.97 152.35 98.06 150.21C98.14 148.08 98.73 146.3 99.81 144.87L101 143.3L107.62 148.32L106.47 149.84Z" fill="#313245"/>
<path d="M140.82 155.68C141.81 154.69 142.42 153.71 142.65 152.74C142.88 151.77 142.72 150.66 142.17 149.43L141.43 147.76L109.67 133.61L115.7 127.58L139.31 138.87L127.85 115.44L133.93 109.37L149.59 143.04C150.7 145.39 151.38 147.47 151.62 149.29C151.86 151.11 151.63 152.83 150.92 154.43C150.21 156.04 149.02 157.67 147.35 159.34L142.8 163.88L137.71 158.79L140.82 155.68Z" fill="#313245"/>
<path d="M151.3 95.0801L170.05 112.69L161.76 88.0701L169.44 82.9201L189.01 99.9801L180.01 75.8401L187.09 71.0901L197.3 104.58L189.73 109.65L170.26 92.6101L178.78 116.99L170.88 122.28L144.22 99.8101L151.3 95.0601V95.0801Z" fill="#313245"/>
<path d="M203.3 49.2598L221.39 92.5598L213.89 95.6898L195.8 52.3898L203.3 49.2598ZM223.39 64.3398C221.71 63.7198 219.84 63.8398 217.78 64.6998C216.49 65.2398 215.44 66.0098 214.62 67.0098C213.81 68.0098 213.32 69.1398 213.15 70.3898C212.98 71.6398 213.18 72.9298 213.74 74.2598L211.47 74.7798C210.33 72.0398 209.94 69.4398 210.3 66.9698C210.67 64.4998 211.53 62.3698 212.89 60.5698C214.25 58.7698 215.85 57.4898 217.71 56.7098C219.93 55.7798 222.09 55.4398 224.2 55.6698C226.31 55.8998 228.25 56.7298 230.01 58.1698C231.77 59.6098 233.21 61.6598 234.32 64.3098L242.44 83.7498L234.94 86.8798L227.47 68.9998C226.43 66.4998 225.07 64.9498 223.38 64.3198L223.39 64.3398Z" fill="#313245"/>
<path d="M247.48 54.84C248.18 52.03 249.57 49.66 251.63 47.74C253.69 45.82 256.34 44.47 259.57 43.71C262.76 42.95 265.75 43.01 268.54 43.87C271.33 44.73 273.72 46.26 275.73 48.46C277.73 50.65 279.12 53.39 279.89 56.65L280.37 58.69L255.61 64.55L254.31 59.07L270.65 55.2C270.16 53.7 269.43 52.47 268.46 51.51C267.49 50.55 266.37 49.9 265.1 49.55C263.83 49.2 262.47 49.2 261.02 49.55C259.32 49.95 257.97 50.7 256.97 51.79C255.97 52.88 255.36 54.29 255.14 56.02C254.92 57.75 255.11 59.87 255.7 62.38C256.53 65.86 257.85 68.34 259.68 69.81C261.51 71.28 263.79 71.7 266.51 71.05C268.55 70.57 270.07 69.74 271.08 68.56C272.08 67.38 272.55 65.99 272.49 64.39L280.85 62.41C281.1 66.3 280.12 69.5 277.93 72.01C275.74 74.52 272.41 76.31 267.94 77.37C264.62 78.16 261.57 78.15 258.8 77.35C256.03 76.55 253.68 75.04 251.76 72.83C249.84 70.62 248.47 67.77 247.65 64.29C246.83 60.81 246.77 57.66 247.47 54.85L247.48 54.84Z" fill="#313245"/>
<path d="M298.64 37.8602L301.79 71.2202L293.69 71.9802L290.54 38.6202L298.64 37.8602ZM308.37 44.6302C306.67 44.7902 305.17 45.2502 303.86 46.0102C302.55 46.7702 301.55 47.7302 300.87 48.8902C300.19 50.0502 299.92 51.3502 300.05 52.7802L297.73 52.6002C297.44 49.4702 297.73 46.7202 298.63 44.3302C299.53 41.9402 300.78 40.0602 302.41 38.6802C304.04 37.3002 305.74 36.5302 307.53 36.3602L309.49 36.1802L310.27 44.4502L308.38 44.6302H308.37Z" fill="#313245"/>
<path d="M323.41 43.5198C324.84 40.9998 326.8 39.0898 329.3 37.7798C331.8 36.4798 334.71 35.8898 338.03 36.0098C341.31 36.1298 344.17 36.9798 346.63 38.5598C349.09 40.1398 350.99 42.2498 352.33 44.8998C353.67 47.5498 354.28 50.5498 354.16 53.9098L354.08 55.9998L328.65 55.0398L328.86 49.4198L345.64 50.0498C345.57 48.4798 345.19 47.0998 344.52 45.9098C343.84 44.7298 342.94 43.7998 341.8 43.1198C340.67 42.4498 339.36 42.0798 337.87 42.0198C336.12 41.9498 334.62 42.3098 333.37 43.0898C332.12 43.8698 331.15 45.0698 330.48 46.6798C329.81 48.2898 329.42 50.3798 329.32 52.9598C329.19 56.5398 329.8 59.2798 331.18 61.1798C332.55 63.0898 334.64 64.0898 337.43 64.1998C339.53 64.2798 341.22 63.8798 342.49 63.0098C343.77 62.1398 344.59 60.9298 344.96 59.3698L353.54 59.6898C352.74 63.4998 350.95 66.3298 348.17 68.1698C345.39 70.0098 341.7 70.8398 337.12 70.6698C333.71 70.5398 330.78 69.7198 328.32 68.2098C325.86 66.6998 324 64.6198 322.75 61.9798C321.49 59.3398 320.93 56.2198 321.07 52.6498C321.2 49.0798 321.99 46.0298 323.42 43.4998L323.41 43.5198Z" fill="#313245"/>
<path d="M389.43 50.3301C391.46 48.1801 393.88 46.7401 396.7 46.0001C399.51 45.2701 402.5 45.3401 405.66 46.2201C408.57 47.0301 410.99 48.3001 412.94 50.0201C414.89 51.7401 416.26 53.8101 417.06 56.2301C417.86 58.6501 417.97 61.3001 417.4 64.1701L409.44 61.9501C409.99 59.6601 409.74 57.7401 408.69 56.2001C407.64 54.6601 406 53.5801 403.77 52.9601C402.09 52.4901 400.53 52.4901 399.11 52.9601C397.69 53.4201 396.45 54.3201 395.4 55.6601C394.35 57.0001 393.52 58.7601 392.91 60.9401C392 64.2201 391.99 66.9601 392.91 69.1601C393.82 71.3601 395.53 72.8101 398.06 73.5201C400.25 74.1301 402.18 74.1001 403.84 73.4301C405.5 72.7601 406.69 71.3901 407.4 69.3301L415.36 71.5501C413.83 75.5601 411.33 78.3201 407.85 79.8201C404.37 81.3201 400.48 81.4701 396.18 80.2701C393.02 79.3901 390.43 77.9101 388.4 75.8201C386.37 73.7401 385.05 71.2301 384.44 68.2901C383.83 65.3601 384 62.1701 384.96 58.7201C385.92 55.2701 387.42 52.4701 389.45 50.3201L389.43 50.3301Z" fill="#313245"/>
<path d="M433.26 64C435.61 62.21 438.24 61.18 441.14 60.92C444.03 60.66 446.99 61.23 450 62.63C453.01 64.03 455.34 65.92 456.98 68.3C458.62 70.68 459.51 73.34 459.66 76.3C459.8 79.25 459.12 82.35 457.61 85.6C456.1 88.84 454.16 91.38 451.78 93.21C449.41 95.04 446.78 96.09 443.91 96.36C441.03 96.63 438.09 96.07 435.08 94.66C432.07 93.26 429.73 91.36 428.07 88.97C426.41 86.58 425.52 83.89 425.39 80.9C425.27 77.91 425.96 74.79 427.47 71.54C428.98 68.3 430.91 65.78 433.27 63.99L433.26 64ZM451.42 74.09C450.88 71.79 449.42 70.09 447.04 68.98C445.45 68.24 443.91 67.98 442.41 68.2C440.91 68.42 439.53 69.11 438.26 70.27C436.99 71.44 435.89 73.03 434.95 75.05C433.51 78.13 433.07 80.84 433.63 83.17C434.18 85.5 435.65 87.22 438.03 88.32C439.62 89.06 441.15 89.31 442.64 89.06C444.13 88.82 445.51 88.11 446.77 86.94C448.04 85.77 449.15 84.16 450.11 82.11C451.53 79.07 451.97 76.39 451.42 74.09Z" fill="#313245"/>
<path d="M485.35 82.7599L465.46 109.73L458.92 104.9L478.81 77.9299L485.35 82.7599ZM489.74 96.2499C489.51 94.5699 488.59 93.1299 486.98 91.9299C485.96 91.1799 484.85 90.7399 483.66 90.6199C482.47 90.4999 481.31 90.7099 480.19 91.2299C479.07 91.7599 478.08 92.5999 477.22 93.7599L475.61 92.0799C477.37 89.6899 479.37 87.9999 481.61 86.9899C483.85 85.9799 486.06 85.5799 488.24 85.7799C490.43 85.9799 492.28 86.6399 493.79 87.7599C495.62 89.1099 496.93 90.7199 497.73 92.5799C498.53 94.4399 498.73 96.4799 498.35 98.6899C497.97 100.9 496.92 103.17 495.21 105.48L482.7 122.44L476.16 117.61L487.66 102.02C489.27 99.8399 489.95 97.9099 489.73 96.2299L489.74 96.2499ZM507.02 109C506.78 107.3 505.85 105.86 504.23 104.66C503.21 103.91 502.1 103.47 500.91 103.35C499.72 103.23 498.56 103.44 497.44 103.96C496.32 104.48 495.33 105.33 494.47 106.49L492.8 104.77C494.56 102.38 496.57 100.69 498.82 99.6999C501.08 98.7099 503.3 98.3099 505.48 98.5099C507.66 98.7099 509.53 99.3899 511.08 100.53C512.88 101.85 514.17 103.45 514.97 105.31C515.77 107.17 515.98 109.21 515.59 111.42C515.21 113.63 514.16 115.9 512.45 118.21L499.94 135.17L493.45 130.38L504.95 114.79C506.56 112.61 507.24 110.68 506.99 108.98L507.02 109Z" fill="#313245"/>
<path d="M537.07 126.12L504.13 155.95L498.67 149.92L531.61 120.09L537.07 126.12ZM529.03 131.23C531.06 130.25 533.04 129.68 534.98 129.51C536.92 129.35 538.75 129.59 540.46 130.25C542.17 130.91 543.71 131.98 545.06 133.47C546.97 135.58 548.08 137.9 548.41 140.43C548.74 142.97 548.33 145.55 547.18 148.18C546.03 150.81 544.13 153.33 541.48 155.73C538.83 158.13 536.12 159.79 533.36 160.7C530.59 161.61 527.97 161.78 525.47 161.21C522.98 160.64 520.78 159.3 518.87 157.19C517.05 155.18 516.01 152.95 515.76 150.49C515.51 148.03 515.99 145.5 517.22 142.89C518.44 140.28 520.38 137.77 523.03 135.37C525 133.58 527 132.2 529.03 131.22V131.23ZM540.25 142.74C540.64 140.41 539.96 138.27 538.19 136.33C537.02 135.03 535.7 134.2 534.25 133.84C532.8 133.47 531.26 133.58 529.64 134.16C528.02 134.74 526.39 135.78 524.74 137.28C522.22 139.56 520.75 141.88 520.35 144.22C519.94 146.57 520.62 148.71 522.38 150.65C523.55 151.95 524.88 152.77 526.34 153.12C527.81 153.47 529.35 153.36 530.97 152.77C532.59 152.19 534.24 151.13 535.92 149.61C538.41 147.36 539.85 145.06 540.24 142.73L540.25 142.74Z" fill="#313245"/>
<path d="M547.15 178.79C546.82 180.52 547.22 182.26 548.36 184.02C549.12 185.19 550.05 186.05 551.15 186.59C552.25 187.13 553.43 187.36 554.69 187.3C555.95 187.24 557.16 186.83 558.34 186.07L559.26 188.21C556.81 189.8 554.34 190.66 551.84 190.79C549.35 190.92 547.11 190.49 545.11 189.49C543.11 188.49 541.57 187.15 540.47 185.46C539.21 183.51 538.52 181.5 538.39 179.42C538.26 177.34 538.75 175.33 539.86 173.39C540.97 171.45 542.73 169.69 545.15 168.13L562.89 156.63L567.31 163.46L551 174.03C548.77 175.48 547.48 177.06 547.14 178.79H547.15ZM546.86 193.51L574.98 175.29L579.37 182.06L551.25 200.28L546.86 193.51Z" fill="#313245"/>
<path d="M563.73 226.03L562.24 222.89C561.4 221.11 560.97 219.37 560.95 217.66C560.94 215.95 561.4 214.39 562.35 212.97C563.3 211.55 564.8 210.36 566.85 209.39L596.01 195.57L599.46 202.86L571.25 216.23C569.83 216.9 568.99 217.62 568.72 218.37C568.45 219.13 568.53 219.96 568.96 220.87L570 223.06L563.73 226.03ZM594.01 211.68L588.04 214.51L579.78 197.09L585.75 194.26L594.01 211.68Z" fill="#313245"/>
<path d="M592.5 227.04C595.36 227.53 597.83 228.72 599.9 230.63C601.98 232.54 603.52 235.07 604.53 238.23C605.53 241.35 605.71 244.34 605.06 247.18C604.41 250.03 603.07 252.53 601.04 254.7C599.01 256.87 596.39 258.46 593.19 259.49L591.2 260.13L583.44 235.9L588.8 234.18L593.92 250.17C595.38 249.57 596.54 248.74 597.42 247.7C598.3 246.66 598.87 245.49 599.12 244.2C599.37 242.9 599.27 241.55 598.81 240.13C598.28 238.46 597.43 237.18 596.26 236.26C595.1 235.35 593.64 234.85 591.9 234.76C590.15 234.68 588.06 235.03 585.61 235.81C582.2 236.9 579.84 238.42 578.51 240.36C577.18 242.3 576.95 244.6 577.8 247.27C578.44 249.27 579.39 250.72 580.64 251.63C581.89 252.54 583.31 252.9 584.9 252.71L587.52 260.89C583.66 261.44 580.4 260.72 577.72 258.73C575.04 256.74 573.01 253.56 571.61 249.19C570.57 245.94 570.34 242.9 570.92 240.08C571.5 237.25 572.82 234.8 574.88 232.72C576.94 230.64 579.67 229.05 583.08 227.96C586.49 226.87 589.62 226.56 592.48 227.05L592.5 227.04Z" fill="#313245"/>
<path d="M613.39 276.67L580.37 282.4L578.98 274.39L611.99 268.66L613.38 276.67H613.39ZM607.39 286.9C607.1 285.22 606.52 283.76 605.67 282.51C604.81 281.26 603.78 280.34 602.57 279.75C601.36 279.16 600.05 278.99 598.63 279.24V276.91C601.72 276.37 604.49 276.46 606.94 277.16C609.39 277.87 611.36 278.98 612.86 280.49C614.36 282 615.27 283.64 615.57 285.41L615.91 287.35L607.72 288.77L607.39 286.9Z" fill="#313245"/>
<path d="M611.09 321.17C612.1 321.78 612.91 322.58 613.52 323.59C614.13 324.59 614.44 325.71 614.45 326.93C614.45 328.2 614.15 329.33 613.55 330.34C612.94 331.35 612.14 332.16 611.13 332.77C610.13 333.39 609 333.7 607.73 333.7C606.51 333.7 605.38 333.4 604.36 332.79C603.33 332.18 602.51 331.37 601.9 330.37C601.28 329.37 600.98 328.23 600.97 326.96C600.97 325.73 601.27 324.62 601.88 323.61C602.49 322.6 603.3 321.79 604.33 321.17C605.35 320.55 606.48 320.25 607.7 320.24C608.96 320.24 610.1 320.54 611.11 321.15L611.09 321.17Z" fill="#313245"/>
</g>
<g clip-path="url(#clip1_61_593)">
<path d="M607.41 370.04C609.67 371.86 611.24 374.1 612.12 376.78C613 379.46 613.12 382.42 612.46 385.68C611.81 388.89 610.51 391.59 608.56 393.76C606.61 395.93 604.22 397.47 601.39 398.37C598.56 399.27 595.5 399.39 592.2 398.72L590.15 398.3L595.19 373.36L600.71 374.47L597.38 390.93C598.95 391.11 600.37 390.97 601.64 390.49C602.92 390.01 603.98 389.27 604.83 388.26C605.68 387.25 606.25 386.01 606.55 384.56C606.9 382.85 606.78 381.31 606.22 379.94C605.65 378.57 604.62 377.43 603.14 376.51C601.66 375.59 599.65 374.87 597.13 374.36C593.62 373.65 590.82 373.82 588.71 374.87C586.61 375.92 585.28 377.81 584.72 380.55C584.3 382.61 584.42 384.34 585.07 385.74C585.72 387.14 586.79 388.15 588.27 388.76L586.57 397.18C582.94 395.78 580.44 393.55 579.07 390.51C577.7 387.47 577.48 383.7 578.38 379.2C579.06 375.86 580.34 373.09 582.23 370.91C584.12 368.73 586.47 367.23 589.28 366.41C592.09 365.6 595.25 365.54 598.76 366.25C602.27 366.96 605.15 368.22 607.41 370.04Z" fill="#313245"/>
<path d="M602.28 421.45L575.25 420.37L596.53 436.94L593.54 445L566.37 421.9L569.59 413.23L605.25 413.45L602.28 421.44L602.28 421.45Z" fill="#313245"/>
<path d="M581.09 453.92C582.68 456.34 583.49 458.96 583.51 461.78C583.53 464.6 582.73 467.46 581.1 470.35C579.5 473.21 577.43 475.37 574.91 476.84C572.39 478.31 569.64 479.03 566.67 479.02C563.7 479.01 560.75 478.18 557.82 476.54L555.99 475.52L568.44 453.33L573.35 456.08L565.14 470.72C566.57 471.37 567.97 471.67 569.33 471.61C570.69 471.55 571.93 471.16 573.05 470.46C574.17 469.76 575.09 468.76 575.82 467.46C576.68 465.93 577.04 464.43 576.92 462.96C576.8 461.49 576.17 460.08 575.04 458.75C573.91 457.42 572.23 456.12 569.98 454.86C566.86 453.11 564.14 452.41 561.81 452.76C559.49 453.11 557.64 454.51 556.27 456.95C555.24 458.78 554.82 460.46 555.01 462C555.2 463.53 555.91 464.82 557.12 465.85L552.92 473.34C549.89 470.89 548.19 468.01 547.83 464.69C547.46 461.38 548.4 457.72 550.65 453.71C552.32 450.73 554.39 448.5 556.85 447C559.32 445.5 562.01 444.8 564.94 444.88C567.87 444.96 570.89 445.89 574.01 447.64C577.13 449.39 579.49 451.48 581.08 453.9L581.09 453.92Z" fill="#313245"/>
<path d="M559 503.03L532.3 482.79L537.21 476.31L563.91 496.55L559 503.03ZM547.43 505.62C548.46 504.26 549.14 502.84 549.47 501.36C549.8 499.88 549.76 498.5 549.37 497.21C548.98 495.92 548.21 494.85 547.06 493.98L548.76 492.39C551.26 494.29 553.09 496.37 554.24 498.64C555.39 500.91 555.93 503.11 555.84 505.25C555.76 507.38 555.17 509.16 554.09 510.59L552.9 512.16L546.28 507.14L547.43 505.62Z" fill="#313245"/>
<path d="M513.08 499.78C512.09 500.77 511.48 501.75 511.25 502.72C511.02 503.69 511.18 504.8 511.73 506.03L512.47 507.7L544.23 521.85L538.2 527.88L514.59 516.59L526.05 540.02L519.97 546.09L504.31 512.42C503.2 510.07 502.52 507.99 502.28 506.17C502.04 504.35 502.27 502.63 502.98 501.03C503.69 499.42 504.88 497.79 506.55 496.12L511.1 491.58L516.19 496.67L513.08 499.78Z" fill="#313245"/>
<path d="M502.6 560.38L483.85 542.77L492.14 567.39L484.46 572.54L464.89 555.48L473.89 579.62L466.81 584.37L456.6 550.88L464.17 545.81L483.64 562.85L475.12 538.47L483.02 533.18L509.68 555.65L502.6 560.4L502.6 560.38Z" fill="#313245"/>
<path d="M450.6 606.2L432.51 562.9L440.01 559.77L458.1 603.07L450.6 606.2ZM430.51 591.12C432.19 591.74 434.06 591.62 436.12 590.76C437.41 590.22 438.46 589.45 439.28 588.45C440.09 587.45 440.58 586.32 440.75 585.07C440.92 583.82 440.72 582.53 440.16 581.2L442.43 580.68C443.57 583.42 443.96 586.02 443.6 588.49C443.23 590.96 442.37 593.09 441.01 594.89C439.65 596.69 438.05 597.97 436.19 598.75C433.97 599.68 431.81 600.02 429.7 599.79C427.59 599.56 425.65 598.73 423.89 597.29C422.13 595.85 420.69 593.8 419.58 591.15L411.46 571.71L418.96 568.58L426.43 586.46C427.47 588.96 428.83 590.51 430.52 591.14L430.51 591.12Z" fill="#313245"/>
<path d="M406.42 600.62C405.72 603.43 404.33 605.8 402.27 607.72C400.21 609.64 397.56 610.99 394.33 611.75C391.14 612.51 388.15 612.45 385.36 611.59C382.57 610.73 380.18 609.2 378.17 607C376.17 604.81 374.78 602.07 374.01 598.81L373.53 596.77L398.29 590.91L399.59 596.39L383.25 600.26C383.74 601.76 384.47 602.99 385.44 603.95C386.41 604.91 387.53 605.56 388.8 605.91C390.07 606.26 391.43 606.26 392.88 605.91C394.58 605.51 395.93 604.76 396.93 603.67C397.93 602.58 398.54 601.17 398.76 599.44C398.98 597.71 398.79 595.59 398.2 593.08C397.37 589.6 396.05 587.12 394.22 585.65C392.39 584.18 390.11 583.76 387.39 584.41C385.35 584.89 383.83 585.72 382.82 586.9C381.82 588.08 381.35 589.47 381.41 591.07L373.05 593.05C372.8 589.16 373.78 585.96 375.97 583.45C378.16 580.94 381.49 579.15 385.96 578.09C389.28 577.3 392.33 577.31 395.1 578.11C397.87 578.91 400.22 580.42 402.14 582.63C404.06 584.84 405.43 587.69 406.25 591.17C407.07 594.65 407.13 597.8 406.43 600.61L406.42 600.62Z" fill="#313245"/>
<path d="M355.26 617.6L352.11 584.24L360.21 583.48L363.36 616.84L355.26 617.6ZM345.53 610.83C347.23 610.67 348.73 610.21 350.04 609.45C351.35 608.69 352.35 607.73 353.03 606.57C353.71 605.41 353.98 604.11 353.85 602.68L356.17 602.86C356.46 605.99 356.17 608.74 355.27 611.13C354.37 613.52 353.12 615.4 351.49 616.78C349.86 618.16 348.16 618.93 346.37 619.1L344.41 619.28L343.63 611.01L345.52 610.83L345.53 610.83Z" fill="#313245"/>
<path d="M330.49 611.94C329.06 614.46 327.1 616.37 324.6 617.68C322.1 618.98 319.19 619.57 315.87 619.45C312.59 619.33 309.73 618.48 307.27 616.9C304.81 615.32 302.91 613.21 301.57 610.56C300.23 607.91 299.62 604.91 299.74 601.55L299.82 599.46L325.25 600.42L325.04 606.04L308.26 605.41C308.33 606.98 308.71 608.36 309.38 609.55C310.06 610.73 310.96 611.66 312.1 612.34C313.23 613.01 314.54 613.38 316.03 613.44C317.78 613.51 319.28 613.15 320.53 612.37C321.78 611.59 322.75 610.39 323.42 608.78C324.09 607.17 324.48 605.08 324.58 602.5C324.71 598.92 324.1 596.18 322.72 594.28C321.35 592.37 319.26 591.37 316.47 591.26C314.37 591.18 312.68 591.58 311.41 592.45C310.13 593.32 309.31 594.53 308.94 596.09L300.36 595.77C301.16 591.96 302.95 589.13 305.73 587.29C308.51 585.45 312.2 584.62 316.78 584.79C320.19 584.92 323.12 585.74 325.58 587.25C328.04 588.76 329.9 590.84 331.15 593.48C332.41 596.12 332.97 599.24 332.83 602.81C332.7 606.38 331.91 609.43 330.48 611.96L330.49 611.94Z" fill="#313245"/>
<path d="M264.47 605.13C262.44 607.28 260.02 608.72 257.2 609.46C254.39 610.19 251.4 610.12 248.24 609.24C245.33 608.43 242.91 607.16 240.96 605.44C239.01 603.72 237.64 601.65 236.84 599.23C236.04 596.81 235.93 594.16 236.5 591.29L244.46 593.51C243.91 595.8 244.16 597.72 245.21 599.26C246.26 600.8 247.9 601.88 250.13 602.5C251.81 602.97 253.37 602.97 254.79 602.5C256.21 602.04 257.45 601.14 258.5 599.8C259.55 598.46 260.38 596.7 260.99 594.52C261.9 591.24 261.91 588.5 260.99 586.3C260.08 584.1 258.37 582.65 255.84 581.94C253.65 581.33 251.72 581.36 250.06 582.03C248.4 582.7 247.21 584.07 246.5 586.13L238.54 583.91C240.07 579.9 242.57 577.14 246.05 575.64C249.53 574.14 253.42 573.99 257.72 575.19C260.88 576.07 263.47 577.55 265.5 579.64C267.53 581.72 268.85 584.23 269.46 587.17C270.07 590.1 269.9 593.29 268.94 596.74C267.98 600.19 266.48 602.99 264.45 605.14L264.47 605.13Z" fill="#313245"/>
<path d="M220.64 591.46C218.29 593.25 215.66 594.28 212.76 594.54C209.87 594.8 206.91 594.23 203.9 592.83C200.89 591.43 198.56 589.54 196.92 587.16C195.28 584.78 194.39 582.12 194.24 579.16C194.1 576.21 194.78 573.11 196.29 569.86C197.8 566.62 199.74 564.08 202.12 562.25C204.49 560.42 207.12 559.37 209.99 559.1C212.87 558.83 215.81 559.39 218.82 560.8C221.83 562.2 224.17 564.1 225.83 566.49C227.49 568.88 228.38 571.57 228.51 574.56C228.63 577.55 227.94 580.67 226.43 583.92C224.92 587.16 222.99 589.68 220.63 591.47L220.64 591.46ZM202.48 581.37C203.02 583.67 204.48 585.37 206.86 586.48C208.45 587.22 209.99 587.48 211.49 587.26C212.99 587.04 214.37 586.35 215.64 585.19C216.91 584.02 218.01 582.43 218.95 580.41C220.39 577.33 220.83 574.62 220.27 572.29C219.72 569.96 218.25 568.24 215.87 567.14C214.28 566.4 212.75 566.15 211.26 566.4C209.77 566.64 208.39 567.35 207.13 568.52C205.86 569.69 204.75 571.3 203.79 573.35C202.37 576.39 201.93 579.07 202.48 581.37Z" fill="#313245"/>
<path d="M168.55 572.7L188.44 545.73L194.98 550.56L175.09 577.53L168.55 572.7ZM164.16 559.21C164.39 560.89 165.31 562.33 166.92 563.53C167.94 564.28 169.05 564.72 170.24 564.84C171.43 564.96 172.59 564.75 173.71 564.23C174.83 563.7 175.82 562.86 176.68 561.7L178.29 563.38C176.53 565.77 174.53 567.46 172.29 568.47C170.05 569.48 167.84 569.88 165.66 569.68C163.47 569.48 161.62 568.82 160.11 567.7C158.28 566.35 156.97 564.74 156.17 562.88C155.37 561.02 155.17 558.98 155.55 556.77C155.93 554.56 156.98 552.29 158.69 549.98L171.2 533.02L177.74 537.85L166.24 553.44C164.63 555.62 163.95 557.55 164.17 559.23L164.16 559.21ZM146.88 546.46C147.12 548.16 148.05 549.6 149.67 550.8C150.69 551.55 151.8 551.99 152.99 552.11C154.18 552.23 155.34 552.02 156.46 551.5C157.58 550.98 158.57 550.13 159.43 548.97L161.1 550.69C159.34 553.08 157.33 554.77 155.08 555.76C152.82 556.75 150.6 557.15 148.42 556.95C146.24 556.75 144.37 556.07 142.82 554.93C141.02 553.61 139.73 552.01 138.93 550.15C138.13 548.29 137.92 546.25 138.31 544.04C138.69 541.83 139.74 539.56 141.45 537.25L153.96 520.29L160.45 525.08L148.95 540.67C147.34 542.85 146.66 544.78 146.91 546.48L146.88 546.46Z" fill="#313245"/>
<path d="M116.83 529.34L149.77 499.51L155.23 505.54L122.29 535.37L116.83 529.34ZM124.87 524.23C122.84 525.21 120.86 525.78 118.92 525.95C116.98 526.11 115.15 525.87 113.44 525.21C111.73 524.55 110.19 523.48 108.84 521.99C106.93 519.88 105.82 517.56 105.49 515.03C105.16 512.49 105.57 509.91 106.72 507.28C107.87 504.65 109.77 502.13 112.42 499.73C115.07 497.33 117.78 495.67 120.54 494.76C123.31 493.85 125.93 493.68 128.43 494.25C130.92 494.82 133.12 496.16 135.03 498.27C136.85 500.28 137.89 502.51 138.14 504.97C138.39 507.43 137.91 509.96 136.68 512.57C135.46 515.18 133.52 517.69 130.87 520.09C128.9 521.88 126.9 523.26 124.87 524.24L124.87 524.23ZM113.65 512.72C113.26 515.05 113.94 517.19 115.71 519.13C116.88 520.43 118.2 521.26 119.65 521.62C121.1 521.99 122.64 521.88 124.26 521.3C125.88 520.72 127.51 519.68 129.16 518.18C131.68 515.9 133.15 513.58 133.55 511.24C133.96 508.89 133.28 506.75 131.52 504.81C130.35 503.51 129.02 502.69 127.56 502.34C126.09 501.99 124.55 502.1 122.93 502.69C121.31 503.27 119.66 504.33 117.98 505.85C115.49 508.1 114.05 510.4 113.66 512.73L113.65 512.72Z" fill="#313245"/>
<path d="M106.75 476.67C107.08 474.94 106.68 473.2 105.54 471.44C104.78 470.27 103.85 469.41 102.75 468.87C101.65 468.33 100.47 468.1 99.2098 468.16C97.9498 468.22 96.7398 468.63 95.5598 469.39L94.6398 467.25C97.0898 465.66 99.5598 464.8 102.06 464.67C104.55 464.54 106.79 464.97 108.79 465.97C110.79 466.97 112.33 468.31 113.43 470C114.69 471.95 115.38 473.96 115.51 476.04C115.64 478.12 115.15 480.13 114.04 482.07C112.93 484.01 111.17 485.77 108.75 487.33L91.0098 498.83L86.5898 492L102.9 481.43C105.13 479.98 106.42 478.4 106.76 476.67L106.75 476.67ZM107.04 461.95L78.9199 480.17L74.5299 473.4L102.65 455.18L107.04 461.95Z" fill="#313245"/>
<path d="M90.1701 429.43L91.6601 432.57C92.5001 434.35 92.93 436.09 92.95 437.8C92.96 439.51 92.5001 441.07 91.5501 442.49C90.6001 443.91 89.1001 445.1 87.0501 446.07L57.89 459.89L54.44 452.6L82.6501 439.23C84.0701 438.56 84.9101 437.84 85.1801 437.09C85.4501 436.33 85.37 435.5 84.94 434.59L83.9001 432.4L90.1701 429.43ZM59.89 443.78L65.8601 440.95L74.12 458.37L68.15 461.2L59.89 443.78Z" fill="#313245"/>
<path d="M61.4 428.42C58.54 427.93 56.07 426.74 54 424.83C51.92 422.92 50.38 420.39 49.37 417.23C48.37 414.11 48.19 411.12 48.84 408.28C49.49 405.43 50.83 402.93 52.86 400.76C54.89 398.59 57.51 397 60.71 395.97L62.7 395.33L70.46 419.56L65.1 421.28L59.98 405.29C58.52 405.89 57.36 406.72 56.48 407.76C55.6 408.8 55.03 409.97 54.78 411.26C54.53 412.56 54.63 413.91 55.09 415.33C55.62 417 56.47 418.28 57.64 419.2C58.8 420.11 60.26 420.61 62 420.7C63.75 420.78 65.84 420.43 68.29 419.65C71.7 418.56 74.06 417.04 75.39 415.1C76.72 413.16 76.95 410.86 76.1 408.19C75.46 406.19 74.51 404.74 73.26 403.83C72.01 402.92 70.59 402.56 69 402.75L66.38 394.57C70.24 394.02 73.5 394.74 76.18 396.73C78.86 398.72 80.89 401.9 82.29 406.27C83.33 409.52 83.56 412.56 82.98 415.38C82.4 418.21 81.08 420.66 79.02 422.74C76.96 424.82 74.23 426.41 70.82 427.5C67.41 428.59 64.28 428.9 61.42 428.41L61.4 428.42Z" fill="#313245"/>
<path d="M40.5099 378.79L73.5299 373.06L74.9199 381.07L41.9099 386.8L40.5199 378.79L40.5099 378.79ZM46.5099 368.56C46.7999 370.24 47.3799 371.7 48.2299 372.95C49.0899 374.2 50.1199 375.12 51.3299 375.71C52.5399 376.3 53.8499 376.47 55.2699 376.22L55.2699 378.55C52.1799 379.09 49.4099 379 46.9599 378.3C44.5099 377.59 42.5399 376.48 41.0399 374.97C39.5399 373.46 38.6299 371.82 38.3299 370.05L37.9899 368.11L46.1799 366.69L46.5099 368.56Z" fill="#313245"/>
<path d="M42.8099 334.29C41.7999 333.68 40.9899 332.88 40.3799 331.87C39.7699 330.87 39.4599 329.75 39.4499 328.53C39.4499 327.26 39.7499 326.13 40.3499 325.12C40.9599 324.11 41.7599 323.3 42.7699 322.69C43.7699 322.07 44.8999 321.76 46.1699 321.76C47.3899 321.76 48.5199 322.06 49.5399 322.67C50.5699 323.28 51.3899 324.09 51.9999 325.09C52.6199 326.09 52.9199 327.23 52.9299 328.5C52.9299 329.73 52.6299 330.84 52.0199 331.85C51.4099 332.86 50.5999 333.67 49.5699 334.29C48.5499 334.91 47.4199 335.21 46.1999 335.22C44.9399 335.22 43.7999 334.92 42.7899 334.31L42.8099 334.29Z" fill="#313245"/>
</g>
<circle cx="326.223" cy="327.225" r="228.72" fill="#313245"/>
<circle cx="327" cy="327" r="323" stroke="#313245" stroke-width="8"/>
<defs>
<clipPath id="clip0_61_593">
<rect width="577.9" height="583.46" fill="white" transform="translate(38 36)"/>
</clipPath>
<clipPath id="clip1_61_593">
<rect width="577.9" height="583.46" fill="white" transform="translate(615.9 619.46) rotate(-180)"/>
</clipPath>
</defs>
</svg>
