<svg width="639" height="639" viewBox="0 0 639 639" fill="none" xmlns="http://www.w3.org/2000/svg">
<path d="M209.616 303.72C210.654 300.43 212.1 297.31 213.898 294.399C222.208 280.945 238.073 271.958 255.468 271.958H308.996C317.28 271.958 323.996 265.242 323.996 256.958V253.97C323.996 245.685 317.28 238.97 308.996 238.97H255.468C214.898 238.97 181.285 268.699 175.203 307.562C175.143 307.949 175.085 308.338 175.03 308.727C174.498 312.483 174.223 316.319 174.223 320.214C174.223 324.11 174.498 327.946 175.03 331.702C175.09 332.125 175.153 332.547 175.219 332.968C181.343 371.781 214.933 401.459 255.468 401.459H308.996C317.28 401.459 323.996 394.743 323.996 386.459V383.471C323.996 375.186 317.28 368.471 308.996 368.471H255.468C238.405 368.471 222.617 359.211 214.157 345.945C212.293 343.021 210.797 339.924 209.721 336.709H310.749C311.82 342.148 313.414 347.395 315.481 352.387C327.41 381.195 355.104 401.459 388.605 401.459H449.291C457.576 401.459 464.291 394.743 464.291 386.459V383.471C464.291 375.186 457.576 368.471 449.291 368.471H388.605C371.433 368.471 356.349 359.505 347.787 345.967C344.481 340.739 342.154 334.837 341.059 328.514C340.593 325.822 340.349 323.05 340.349 320.214C340.349 317.379 340.593 314.606 341.059 311.914C342.154 305.591 344.481 299.689 347.787 294.462C356.349 280.923 371.433 271.958 388.605 271.958H449.291C457.576 271.958 464.291 265.243 464.291 256.958V253.97C464.291 245.685 457.576 238.97 449.291 238.97H388.605C355.104 238.97 327.41 259.233 315.481 288.042C313.414 293.034 311.82 298.28 310.749 303.72H209.616Z" fill="#E1E2EA" stroke="#313245" stroke-width="14"/>
</svg>
