<svg width="554" height="554" viewBox="0 0 554 554" fill="none" xmlns="http://www.w3.org/2000/svg">
<path fill-rule="evenodd" clip-rule="evenodd" d="M277 547C426.117 547 547 426.117 547 277C547 127.883 426.117 7 277 7C127.883 7 7 127.883 7 277C7 426.117 127.883 547 277 547Z" fill="#181929"/>
<g clip-path="url(#clip0_739_5948)">
<path d="M39.5777 241.807C37.6649 240.266 36.336 238.37 35.5912 236.102C34.8464 233.834 34.7448 231.328 35.3034 228.569C35.8536 225.852 36.9539 223.567 38.6044 221.73C40.2548 219.894 42.2777 218.59 44.673 217.828C47.0683 217.067 49.6583 216.965 52.4514 217.532L54.1865 217.888L49.9207 238.997L45.2486 238.057L48.0671 224.126C46.7382 223.973 45.5363 224.092 44.4614 224.498C43.378 224.904 42.4809 225.531 41.7614 226.386C41.042 227.24 40.5595 228.29 40.3056 229.517C40.0094 230.965 40.111 232.268 40.5849 233.428C41.0674 234.587 41.9392 235.552 43.1918 236.331C44.4445 237.109 46.1458 237.719 48.2787 238.15C51.2495 238.751 53.6194 238.607 55.4053 237.719C57.1827 236.83 58.3085 235.23 58.7824 232.911C59.1379 231.168 59.0364 229.703 58.4862 228.518C57.936 227.334 57.0304 226.479 55.7777 225.962L57.2166 218.836C60.289 220.021 62.405 221.908 63.5646 224.481C64.7241 227.054 64.9103 230.245 64.1486 234.054C63.573 236.881 62.4896 239.225 60.89 241.071C59.2903 242.916 57.3012 244.185 54.9229 244.879C52.5445 245.565 49.8699 245.616 46.899 245.015C43.9282 244.414 41.4906 243.347 39.5777 241.807Z" fill="#E1E1F2"/>
<path d="M43.9198 198.294L66.7979 199.208L48.7866 185.183L51.3173 178.361L74.3138 197.913L71.5885 205.251L41.406 205.065L43.9198 198.302V198.294Z" fill="#E1E1F2"/>
<path d="M61.8549 170.811C60.5091 168.763 59.8235 166.546 59.8066 164.159C59.7897 161.772 60.4668 159.351 61.8464 156.905C63.2006 154.485 64.9527 152.656 67.0856 151.412C69.2185 150.168 71.5461 149.559 74.0599 149.567C76.5737 149.575 79.0705 150.278 81.5505 151.666L83.0994 152.529L72.5618 171.311L68.406 168.983L75.3549 156.592C74.1445 156.042 72.9596 155.788 71.8085 155.839C70.6574 155.89 69.6078 156.22 68.6599 156.812C67.7119 157.405 66.9332 158.251 66.3154 159.351C65.5875 160.646 65.2828 161.916 65.3843 163.16C65.4859 164.404 66.0191 165.598 66.9756 166.723C67.932 167.849 69.3539 168.949 71.2583 170.016C73.8991 171.497 76.2013 172.09 78.1734 171.793C80.137 171.497 81.7028 170.312 82.8624 168.247C83.7342 166.698 84.0897 165.276 83.9288 163.973C83.768 162.678 83.1671 161.586 82.1429 160.714L85.6978 154.374C88.2624 156.448 89.7013 158.886 90.006 161.696C90.3191 164.497 89.5235 167.595 87.6191 170.989C86.2056 173.511 84.4536 175.399 82.3715 176.669C80.2809 177.938 78.0041 178.531 75.5241 178.463C73.0442 178.395 70.4881 177.608 67.8473 176.127C65.2066 174.646 63.2091 172.877 61.8633 170.828L61.8549 170.811Z" fill="#E1E1F2"/>
<path d="M80.5517 129.245L103.15 146.376L98.9946 151.861L76.3959 134.73L80.5517 129.245ZM90.3445 127.053C89.4727 128.204 88.8971 129.406 88.6178 130.659C88.3385 131.911 88.3724 133.079 88.7025 134.171C89.0325 135.263 89.6843 136.169 90.6576 136.905L89.2188 138.251C87.1028 136.643 85.5539 134.882 84.5805 132.961C83.6072 131.04 83.1501 129.177 83.2263 127.366C83.294 125.563 83.7934 124.057 84.7075 122.846L85.7147 121.518L91.3178 125.766L90.3445 127.053Z" fill="#E1E1F2"/>
<path d="M119.418 131.996C120.256 131.158 120.772 130.328 120.967 129.507C121.162 128.686 121.026 127.747 120.561 126.706L119.934 125.292L93.053 113.316L98.1567 108.212L118.14 117.768L108.44 97.9369L113.587 92.7993L126.841 121.297C127.781 123.286 128.356 125.047 128.559 126.587C128.762 128.128 128.568 129.584 127.967 130.938C127.366 132.301 126.359 133.68 124.945 135.094L121.094 138.936L116.786 134.628L119.418 131.996Z" fill="#E1E1F2"/>
<path d="M128.288 80.7044L144.158 95.6094L137.142 74.7712L143.642 70.4123L160.206 84.8518L152.588 64.4198L158.581 60.3994L167.223 88.7452L160.815 93.0364L144.336 78.6138L151.547 99.2489L144.861 103.726L122.296 84.7079L128.288 80.6875V80.7044Z" fill="#E1E1F2"/>
<path d="M172.301 41.9224L187.612 78.5713L181.264 81.2205L165.953 44.5716L172.301 41.9224ZM189.305 54.686C187.883 54.1612 186.3 54.2628 184.557 54.9907C183.465 55.4478 182.576 56.0995 181.882 56.9459C181.197 57.7923 180.782 58.7487 180.638 59.8067C180.494 60.8647 180.663 61.9565 181.137 63.0822L179.216 63.5224C178.251 61.2032 177.921 59.0026 178.226 56.912C178.539 54.8214 179.267 53.0186 180.418 51.4951C181.569 49.9716 182.923 48.8882 184.498 48.228C186.377 47.4409 188.205 47.1531 189.991 47.3478C191.777 47.5424 193.419 48.2449 194.908 49.4637C196.398 50.6826 197.617 52.4177 198.556 54.6606L205.429 71.1145L199.081 73.7637L192.758 58.6302C191.878 56.5142 190.727 55.2023 189.297 54.6691L189.305 54.686Z" fill="#E1E1F2"/>
<path d="M209.695 46.6451C210.287 44.2667 211.464 42.2608 213.207 40.6357C214.951 39.0106 217.194 37.868 219.928 37.2247C222.628 36.5815 225.158 36.6322 227.52 37.3601C229.881 38.088 231.904 39.383 233.605 41.2451C235.298 43.0987 236.475 45.4178 237.126 48.1771L237.533 49.9037L216.576 54.8636L215.476 50.2253L229.306 46.9498C228.891 45.6802 228.273 44.6391 227.452 43.8266C226.631 43.0141 225.683 42.4639 224.608 42.1677C223.533 41.8714 222.382 41.8714 221.155 42.1677C219.716 42.5062 218.573 43.141 217.727 44.0636C216.881 44.9862 216.364 46.1796 216.178 47.6438C215.992 49.1081 216.153 50.9025 216.652 53.0269C217.355 55.9724 218.472 58.0714 220.021 59.3156C221.57 60.5598 223.499 60.9153 225.802 60.3652C227.528 59.9589 228.815 59.2564 229.67 58.2576C230.516 57.2589 230.914 56.0824 230.863 54.7282L237.939 53.0523C238.151 56.3448 237.321 59.0532 235.467 61.1777C233.614 63.3022 230.795 64.8172 227.012 65.7144C224.202 66.383 221.62 66.3746 219.276 65.6974C216.931 65.0203 214.942 63.7423 213.317 61.8717C211.692 60.0012 210.533 57.589 209.839 54.6435C209.145 51.6981 209.094 49.0319 209.686 46.6536L209.695 46.6451Z" fill="#E1E1F2"/>
<path d="M252.996 32.2735L255.662 60.5092L248.807 61.1525L246.14 32.9168L252.996 32.2735ZM261.232 38.0036C259.793 38.139 258.523 38.5284 257.414 39.1716C256.306 39.8149 255.459 40.6274 254.884 41.6092C254.308 42.5911 254.08 43.6914 254.19 44.9017L252.226 44.7494C251.981 42.1002 252.226 39.7726 252.988 37.7497C253.749 35.7268 254.807 34.1356 256.187 32.9675C257.567 31.7995 259.006 31.1478 260.521 31.0039L262.18 30.8516L262.84 37.8512L261.24 38.0036H261.232Z" fill="#E1E1F2"/>
<path d="M273.961 37.0641C275.172 34.9312 276.831 33.3146 278.947 32.2058C281.063 31.1055 283.526 30.6061 286.336 30.7077C289.112 30.8093 291.533 31.5287 293.615 32.866C295.697 34.2033 297.305 35.9892 298.439 38.2321C299.573 40.4751 300.09 43.0143 299.988 45.8582L299.92 47.6271L278.397 46.8146L278.574 42.0579L292.777 42.5911C292.718 41.2622 292.396 40.0942 291.829 39.087C291.253 38.0883 290.492 37.3011 289.527 36.7256C288.57 36.1585 287.461 35.8453 286.2 35.7945C284.719 35.7353 283.45 36.04 282.392 36.7002C281.334 37.3604 280.513 38.376 279.945 39.7387C279.378 41.1014 279.048 42.8704 278.964 45.0541C278.854 48.0842 279.37 50.4033 280.538 52.0115C281.698 53.6281 283.466 54.4745 285.828 54.5676C287.605 54.6353 289.036 54.2967 290.111 53.5604C291.194 52.824 291.888 51.7999 292.201 50.4795L299.463 50.7503C298.786 53.9751 297.271 56.3704 294.918 57.9278C292.565 59.4851 289.442 60.1876 285.566 60.0437C282.679 59.9337 280.199 59.2397 278.117 57.9616C276.035 56.6836 274.461 54.9231 273.403 52.6886C272.336 50.4541 271.862 47.8133 271.981 44.7917C272.091 41.7701 272.76 39.1886 273.97 37.0472L273.961 37.0641Z" fill="#E1E1F2"/>
<path d="M329.84 42.8282C331.559 41.0084 333.607 39.7896 335.994 39.1633C338.372 38.5454 340.903 38.6046 343.577 39.3495C346.04 40.0351 348.089 41.11 349.739 42.5658C351.39 44.0216 352.549 45.7736 353.226 47.8219C353.903 49.8702 353.997 52.1131 353.514 54.5423L346.777 52.6633C347.242 50.725 347.031 49.0999 346.142 47.7965C345.253 46.493 343.865 45.5789 341.978 45.0542C340.556 44.6564 339.235 44.6564 338.034 45.0542C336.832 45.4435 335.782 46.2053 334.893 47.3394C334.005 48.4736 333.302 49.9633 332.786 51.8084C332.016 54.5846 332.007 56.9037 332.786 58.7658C333.556 60.6278 335.003 61.8551 337.145 62.4561C338.998 62.9724 340.632 62.947 342.037 62.3799C343.442 61.8128 344.449 60.6532 345.05 58.9097L351.787 60.7887C350.492 64.1827 348.376 66.5187 345.431 67.7883C342.486 69.0579 339.193 69.1849 335.554 68.1692C332.879 67.4244 330.687 66.1717 328.969 64.4028C327.25 62.6423 326.133 60.5178 325.617 58.0294C325.101 55.5495 325.244 52.8495 326.057 49.9294C326.87 47.0093 328.139 44.6394 329.857 42.8197L329.84 42.8282Z" fill="#E1E1F2"/>
<path d="M366.938 54.3983C368.927 52.8833 371.153 52.0115 373.608 51.7914C376.054 51.5714 378.559 52.0538 381.107 53.2388C383.654 54.4237 385.626 56.0234 387.014 58.0378C388.403 60.0523 389.156 62.3037 389.283 64.809C389.401 67.3059 388.826 69.9297 387.548 72.6805C386.27 75.4228 384.628 77.5726 382.613 79.1215C380.607 80.6704 378.381 81.5592 375.952 81.7877C373.514 82.0162 371.026 81.5422 368.478 80.3488C365.931 79.1639 363.95 77.5557 362.545 75.5328C361.14 73.5099 360.387 71.2331 360.277 68.7024C360.175 66.1717 360.759 63.5309 362.037 60.7802C363.315 58.0378 364.949 55.9049 366.946 54.3899L366.938 54.3983ZM382.308 62.9385C381.851 60.9918 380.616 59.5529 378.601 58.6134C377.255 57.9871 375.952 57.767 374.682 57.9532C373.413 58.1394 372.245 58.7234 371.17 59.7052C370.095 60.6955 369.164 62.0413 368.368 63.751C367.15 66.3579 366.777 68.6516 367.251 70.6237C367.717 72.5958 368.961 74.0516 370.975 74.9827C372.321 75.609 373.616 75.8206 374.877 75.609C376.138 75.4059 377.306 74.8049 378.373 73.8146C379.448 72.8244 380.387 71.4617 381.2 69.7266C382.402 67.1535 382.774 64.8852 382.308 62.9385Z" fill="#E1E1F2"/>
<path d="M411.027 70.2766L394.192 93.1038L388.656 89.0157L405.491 66.1885L411.027 70.2766ZM414.742 81.6944C414.548 80.2725 413.769 79.0537 412.406 78.038C411.543 77.4032 410.604 77.0308 409.596 76.9292C408.589 76.8277 407.607 77.0054 406.659 77.4455C405.711 77.8941 404.873 78.6051 404.146 79.5869L402.783 78.165C404.272 76.1421 405.965 74.7117 407.861 73.8568C409.757 73.002 411.628 72.6634 413.473 72.8327C415.326 73.002 416.892 73.5606 418.17 74.5085C419.719 75.6512 420.828 77.0139 421.505 78.5882C422.182 80.1625 422.351 81.8891 422.03 83.7596C421.708 85.6302 420.819 87.5515 419.372 89.5067L408.784 103.862L403.248 99.7734L412.982 86.5781C414.345 84.733 414.92 83.0994 414.734 81.6775L414.742 81.6944ZM429.368 92.486C429.165 91.0471 428.378 89.8283 427.007 88.8126C426.143 88.1778 425.204 87.8054 424.197 87.7038C423.189 87.6023 422.208 87.78 421.26 88.2201C420.312 88.6603 419.474 89.3797 418.746 90.3615L417.332 88.9057C418.822 86.8828 420.523 85.4524 422.428 84.6145C424.341 83.7766 426.22 83.438 428.065 83.6073C429.91 83.7766 431.493 84.3521 432.804 85.317C434.328 86.4342 435.42 87.7885 436.097 89.3628C436.774 90.9371 436.952 92.6637 436.622 94.5342C436.3 96.4048 435.411 98.3261 433.964 100.281L423.376 114.636L417.883 110.582L427.616 97.3866C428.979 95.5415 429.554 93.9079 429.343 92.469L429.368 92.486Z" fill="#E1E1F2"/>
<path d="M454.802 106.976L426.922 132.224L422.301 127.121L450.181 101.873L454.802 106.976ZM447.997 111.301C449.715 110.472 451.391 109.989 453.033 109.846C454.675 109.71 456.224 109.913 457.671 110.472C459.119 111.031 460.422 111.936 461.565 113.197C463.182 114.983 464.121 116.947 464.4 119.088C464.68 121.238 464.333 123.422 463.359 125.648C462.386 127.874 460.778 130.007 458.535 132.038C456.292 134.069 453.998 135.474 451.662 136.245C449.318 137.015 447.1 137.159 444.984 136.676C442.877 136.194 441.014 135.06 439.398 133.274C437.857 131.573 436.977 129.685 436.766 127.603C436.554 125.521 436.96 123.379 438.001 121.17C439.034 118.961 440.676 116.837 442.919 114.805C444.586 113.29 446.279 112.122 447.997 111.293V111.301ZM457.494 121.043C457.824 119.071 457.248 117.26 455.75 115.618C454.76 114.518 453.643 113.815 452.415 113.51C451.188 113.197 449.885 113.29 448.514 113.781C447.142 114.272 445.763 115.152 444.366 116.422C442.233 118.352 440.989 120.316 440.65 122.296C440.303 124.285 440.879 126.096 442.369 127.738C443.359 128.839 444.485 129.533 445.72 129.829C446.965 130.125 448.268 130.032 449.639 129.533C451.01 129.042 452.407 128.145 453.829 126.858C455.936 124.954 457.155 123.007 457.485 121.035L457.494 121.043Z" fill="#E1E1F2"/>
<path d="M463.334 151.556C463.054 153.02 463.393 154.493 464.358 155.983C465.001 156.973 465.788 157.701 466.719 158.158C467.65 158.615 468.649 158.81 469.716 158.759C470.782 158.708 471.806 158.361 472.805 157.718L473.584 159.529C471.51 160.875 469.419 161.603 467.303 161.713C465.196 161.823 463.3 161.459 461.607 160.612C459.914 159.766 458.611 158.632 457.68 157.201C456.613 155.551 456.029 153.85 455.919 152.089C455.809 150.329 456.224 148.627 457.164 146.985C458.103 145.343 459.593 143.854 461.641 142.533L476.656 132.8L480.397 138.581L466.592 147.527C464.705 148.754 463.613 150.092 463.325 151.556H463.334ZM463.088 164.015L486.889 148.594L490.605 154.324L466.804 169.745L463.088 164.015Z" fill="#E1E1F2"/>
<path d="M477.367 191.54L476.106 188.882C475.395 187.376 475.031 185.903 475.014 184.456C475.006 183.008 475.395 181.688 476.199 180.486C477.003 179.284 478.273 178.277 480.008 177.456L504.689 165.759L507.609 171.929L483.732 183.245C482.53 183.812 481.819 184.422 481.591 185.056C481.362 185.7 481.43 186.402 481.794 187.172L482.674 189.026L477.367 191.54ZM502.996 179.394L497.943 181.789L490.952 167.045L496.005 164.65L502.996 179.394Z" fill="#E1E1F2"/>
<path d="M501.718 192.394C504.139 192.809 506.229 193.816 507.981 195.433C509.742 197.05 511.045 199.191 511.9 201.866C512.746 204.506 512.899 207.037 512.349 209.441C511.798 211.853 510.664 213.969 508.946 215.806C507.228 217.642 505.01 218.988 502.302 219.86L500.618 220.402L494.05 199.894L498.586 198.438L502.92 211.972C504.156 211.464 505.137 210.761 505.882 209.881C506.627 209.001 507.109 208.01 507.321 206.919C507.533 205.818 507.448 204.676 507.059 203.474C506.61 202.06 505.891 200.977 504.9 200.198C503.919 199.428 502.683 199.005 501.21 198.929C499.729 198.861 497.96 199.157 495.886 199.817C493 200.74 491.003 202.026 489.877 203.668C488.751 205.31 488.556 207.257 489.276 209.517C489.818 211.21 490.622 212.437 491.68 213.207C492.738 213.978 493.94 214.282 495.285 214.121L497.503 221.045C494.236 221.51 491.477 220.901 489.208 219.217C486.94 217.532 485.222 214.841 484.037 211.142C483.156 208.391 482.962 205.818 483.453 203.431C483.944 201.036 485.061 198.962 486.804 197.202C488.548 195.441 490.859 194.096 493.745 193.173C496.631 192.251 499.28 191.988 501.701 192.403L501.718 192.394Z" fill="#E1E1F2"/>
<path d="M519.399 234.401L491.451 239.251L490.275 232.471L518.214 227.622L519.391 234.401H519.399ZM514.321 243.06C514.075 241.638 513.584 240.402 512.865 239.344C512.137 238.286 511.265 237.507 510.241 237.008C509.217 236.509 508.108 236.365 506.906 236.576V234.604C509.522 234.147 511.866 234.223 513.94 234.816C516.014 235.417 517.681 236.356 518.951 237.634C520.22 238.912 520.99 240.301 521.244 241.799L521.532 243.441L514.6 244.643L514.321 243.06Z" fill="#E1E1F2"/>
<path d="M517.452 272.065C518.307 272.582 518.993 273.259 519.509 274.114C520.025 274.96 520.288 275.908 520.296 276.941C520.296 278.016 520.042 278.972 519.534 279.827C519.018 280.682 518.341 281.367 517.486 281.884C516.64 282.408 515.683 282.671 514.608 282.671C513.576 282.671 512.619 282.417 511.756 281.901C510.884 281.384 510.19 280.699 509.674 279.852C509.149 279.006 508.895 278.041 508.887 276.966C508.887 275.925 509.141 274.986 509.657 274.131C510.173 273.276 510.859 272.59 511.731 272.065C512.594 271.541 513.551 271.287 514.583 271.278C515.65 271.278 516.614 271.532 517.469 272.049L517.452 272.065Z" fill="#E1E1F2"/>
</g>
<g clip-path="url(#clip1_739_5948)">
<path d="M514.338 313.429C516.25 314.97 517.579 316.866 518.324 319.134C519.069 321.403 519.17 323.908 518.612 326.667C518.062 329.384 516.961 331.669 515.311 333.506C513.66 335.343 511.638 336.646 509.242 337.408C506.847 338.17 504.257 338.271 501.464 337.704L499.729 337.349L503.995 316.239L508.667 317.179L505.848 331.111C507.177 331.263 508.379 331.145 509.454 330.738C510.537 330.332 511.434 329.706 512.154 328.851C512.873 327.996 513.356 326.946 513.61 325.719C513.906 324.272 513.804 322.968 513.33 321.809C512.848 320.649 511.976 319.684 510.723 318.906C509.471 318.127 507.77 317.518 505.637 317.086C502.666 316.485 500.296 316.629 498.51 317.518C496.733 318.406 495.607 320.006 495.133 322.325C494.777 324.069 494.879 325.533 495.429 326.718C495.979 327.903 496.885 328.758 498.138 329.274L496.699 336.401C493.626 335.216 491.51 333.328 490.351 330.755C489.191 328.182 489.005 324.991 489.767 321.182C490.342 318.355 491.426 316.011 493.025 314.166C494.625 312.321 496.614 311.051 498.992 310.357C501.371 309.671 504.045 309.621 507.016 310.222C509.987 310.823 512.425 311.889 514.338 313.429Z" fill="#E1E1F2"/>
<path d="M509.996 356.942L487.118 356.028L505.129 370.053L502.598 376.875L479.602 357.323L482.327 349.985L512.509 350.171L509.996 356.934L509.996 356.942Z" fill="#E1E1F2"/>
<path d="M492.06 384.425C493.406 386.473 494.092 388.691 494.109 391.078C494.126 393.464 493.449 395.885 492.069 398.331C490.715 400.752 488.963 402.58 486.83 403.824C484.697 405.068 482.369 405.678 479.855 405.669C477.342 405.661 474.845 404.958 472.365 403.57L470.816 402.707L481.354 383.925L485.509 386.253L478.56 398.644C479.771 399.194 480.956 399.448 482.107 399.398C483.258 399.347 484.307 399.017 485.255 398.424C486.203 397.832 486.982 396.985 487.6 395.885C488.328 394.59 488.633 393.32 488.531 392.076C488.429 390.832 487.896 389.639 486.94 388.513C485.983 387.387 484.561 386.287 482.657 385.22C480.016 383.739 477.714 383.147 475.742 383.443C473.778 383.739 472.212 384.924 471.053 386.989C470.181 388.538 469.826 389.96 469.986 391.264C470.147 392.559 470.748 393.651 471.772 394.522L468.217 400.862C465.653 398.788 464.214 396.351 463.909 393.541C463.596 390.739 464.392 387.641 466.296 384.247C467.71 381.725 469.462 379.837 471.544 378.568C473.634 377.298 475.911 376.706 478.391 376.773C480.871 376.841 483.427 377.628 486.068 379.109C488.709 380.591 490.706 382.36 492.052 384.408L492.06 384.425Z" fill="#E1E1F2"/>
<path d="M473.364 425.991L450.765 408.86L454.921 403.375L477.519 420.507L473.364 425.991ZM463.571 428.183C464.443 427.032 465.018 425.83 465.297 424.578C465.577 423.325 465.543 422.157 465.213 421.065C464.883 419.973 464.231 419.068 463.258 418.331L464.697 416.986C466.813 418.594 468.361 420.354 469.335 422.275C470.308 424.197 470.765 426.059 470.689 427.87C470.621 429.673 470.122 431.18 469.208 432.39L468.201 433.719L462.597 429.47L463.571 428.183Z" fill="#E1E1F2"/>
<path d="M434.497 423.24C433.659 424.078 433.143 424.908 432.948 425.729C432.754 426.55 432.889 427.489 433.354 428.53L433.981 429.944L460.862 441.92L455.759 447.024L435.775 437.468L445.475 457.299L440.329 462.437L427.074 433.939C426.135 431.95 425.559 430.189 425.356 428.649C425.153 427.108 425.348 425.653 425.949 424.298C426.549 422.936 427.557 421.556 428.97 420.143L432.821 416.3L437.129 420.608L434.497 423.24Z" fill="#E1E1F2"/>
<path d="M425.627 474.532L409.757 459.627L416.774 480.465L410.273 484.824L393.709 470.385L401.327 490.817L395.334 494.837L386.693 466.491L393.1 462.2L409.579 476.622L402.368 455.987L409.054 451.51L431.619 470.528L425.627 474.549L425.627 474.532Z" fill="#E1E1F2"/>
<path d="M381.614 513.314L366.303 476.665L372.651 474.016L387.962 510.665L381.614 513.314ZM364.61 500.55C366.032 501.075 367.615 500.974 369.359 500.246C370.45 499.789 371.339 499.137 372.033 498.29C372.719 497.444 373.133 496.488 373.277 495.43C373.421 494.372 373.252 493.28 372.778 492.154L374.699 491.714C375.664 494.033 375.994 496.234 375.69 498.324C375.376 500.415 374.648 502.218 373.497 503.741C372.346 505.265 370.992 506.348 369.418 507.008C367.539 507.795 365.711 508.083 363.925 507.889C362.139 507.694 360.497 506.991 359.007 505.773C357.517 504.554 356.299 502.819 355.359 500.576L348.486 484.122L354.834 481.473L361.157 496.606C362.037 498.722 363.188 500.034 364.619 500.567L364.61 500.55Z" fill="#E1E1F2"/>
<path d="M344.221 508.591C343.628 510.97 342.452 512.976 340.708 514.601C338.964 516.226 336.722 517.368 333.988 518.012C331.288 518.655 328.757 518.604 326.395 517.876C324.034 517.148 322.011 515.853 320.31 513.991C318.617 512.138 317.441 509.818 316.789 507.059L316.383 505.333L337.339 500.373L338.44 505.011L324.61 508.287C325.024 509.556 325.642 510.597 326.463 511.41C327.284 512.222 328.232 512.772 329.307 513.069C330.382 513.365 331.533 513.365 332.76 513.069C334.199 512.73 335.342 512.095 336.188 511.173C337.035 510.25 337.551 509.057 337.737 507.592C337.923 506.128 337.763 504.334 337.263 502.209C336.561 499.264 335.443 497.165 333.895 495.921C332.346 494.676 330.416 494.321 328.114 494.871C326.387 495.277 325.101 495.98 324.246 496.979C323.399 497.977 323.001 499.154 323.052 500.508L315.976 502.184C315.765 498.892 316.594 496.183 318.448 494.059C320.301 491.934 323.12 490.419 326.903 489.522C329.713 488.853 332.295 488.862 334.639 489.539C336.984 490.216 338.973 491.494 340.598 493.365C342.223 495.235 343.383 497.647 344.077 500.593C344.771 503.538 344.822 506.204 344.229 508.583L344.221 508.591Z" fill="#E1E1F2"/>
<path d="M300.919 522.963L298.253 494.727L305.109 494.084L307.775 522.32L300.919 522.963ZM292.684 517.233C294.123 517.097 295.392 516.708 296.501 516.065C297.61 515.421 298.456 514.609 299.032 513.627C299.607 512.645 299.836 511.545 299.726 510.335L301.689 510.487C301.935 513.136 301.689 515.464 300.928 517.487C300.166 519.51 299.108 521.101 297.728 522.269C296.349 523.437 294.91 524.089 293.395 524.232L291.736 524.385L291.076 517.385L292.675 517.233L292.684 517.233Z" fill="#E1E1F2"/>
<path d="M279.954 518.172C278.743 520.305 277.085 521.922 274.969 523.031C272.853 524.131 270.39 524.63 267.58 524.529C264.803 524.427 262.383 523.708 260.301 522.37C258.218 521.033 256.61 519.247 255.476 517.004C254.342 514.761 253.826 512.222 253.927 509.378L253.995 507.609L275.519 508.422L275.341 513.178L261.138 512.645C261.198 513.974 261.519 515.142 262.086 516.149C262.662 517.148 263.424 517.935 264.389 518.511C265.345 519.078 266.454 519.391 267.715 519.442C269.196 519.501 270.466 519.196 271.524 518.536C272.582 517.876 273.403 516.86 273.97 515.498C274.537 514.135 274.867 512.366 274.952 510.182C275.062 507.152 274.545 504.833 273.377 503.225C272.218 501.608 270.449 500.762 268.087 500.669C266.31 500.601 264.88 500.94 263.805 501.676C262.721 502.412 262.027 503.436 261.714 504.757L254.452 504.486C255.129 501.261 256.644 498.866 258.997 497.309C261.35 495.751 264.473 495.049 268.35 495.193C271.236 495.303 273.716 495.997 275.798 497.275C277.88 498.553 279.454 500.313 280.512 502.548C281.579 504.782 282.053 507.423 281.934 510.445C281.824 513.466 281.156 516.048 279.945 518.189L279.954 518.172Z" fill="#E1E1F2"/>
<path d="M224.075 512.408C222.357 514.228 220.308 515.447 217.922 516.073C215.543 516.691 213.012 516.632 210.338 515.887C207.875 515.201 205.827 514.126 204.176 512.671C202.526 511.215 201.366 509.463 200.689 507.414C200.012 505.366 199.919 503.123 200.401 500.694L207.138 502.573C206.673 504.511 206.885 506.136 207.773 507.44C208.662 508.743 210.05 509.657 211.938 510.182C213.36 510.58 214.68 510.58 215.882 510.182C217.084 509.793 218.133 509.031 219.022 507.897C219.911 506.763 220.613 505.273 221.129 503.428C221.9 500.652 221.908 498.333 221.129 496.471C220.359 494.608 218.912 493.381 216.77 492.78C214.917 492.264 213.283 492.289 211.878 492.856C210.473 493.424 209.466 494.583 208.865 496.327L202.128 494.448C203.423 491.054 205.539 488.718 208.484 487.448C211.43 486.178 214.722 486.051 218.362 487.067C221.036 487.812 223.228 489.065 224.947 490.834C226.665 492.594 227.782 494.719 228.298 497.207C228.815 499.687 228.671 502.387 227.858 505.307C227.046 508.227 225.776 510.597 224.058 512.417L224.075 512.408Z" fill="#E1E1F2"/>
<path d="M186.977 500.838C184.988 502.353 182.762 503.225 180.308 503.445C177.862 503.665 175.356 503.182 172.809 501.998C170.261 500.813 168.289 499.213 166.901 497.198C165.513 495.184 164.759 492.933 164.633 490.427C164.514 487.93 165.09 485.307 166.368 482.556C167.646 479.814 169.288 477.664 171.302 476.115C173.308 474.566 175.534 473.677 177.963 473.449C180.401 473.22 182.889 473.694 185.437 474.888C187.985 476.072 189.965 477.681 191.37 479.703C192.775 481.726 193.528 484.003 193.638 486.534C193.74 489.065 193.156 491.705 191.878 494.456C190.6 497.198 188.966 499.331 186.969 500.846L186.977 500.838ZM171.607 492.298C172.064 494.245 173.3 495.683 175.314 496.623C176.66 497.249 177.963 497.469 179.233 497.283C180.502 497.097 181.67 496.513 182.745 495.531C183.82 494.541 184.751 493.195 185.547 491.485C186.766 488.878 187.138 486.585 186.664 484.613C186.199 482.64 184.954 481.185 182.94 480.254C181.594 479.627 180.299 479.416 179.038 479.627C177.777 479.83 176.609 480.431 175.543 481.422C174.468 482.412 173.528 483.775 172.716 485.51C171.514 488.083 171.141 490.351 171.607 492.298Z" fill="#E1E1F2"/>
<path d="M142.889 484.96L159.723 462.132L165.259 466.221L148.424 489.048L142.889 484.96ZM139.173 473.542C139.368 474.964 140.146 476.183 141.509 477.198C142.372 477.833 143.312 478.206 144.319 478.307C145.326 478.409 146.308 478.231 147.256 477.791C148.204 477.342 149.042 476.631 149.77 475.649L151.132 477.071C149.643 479.094 147.95 480.525 146.054 481.38C144.158 482.234 142.288 482.573 140.443 482.404C138.589 482.234 137.023 481.676 135.745 480.728C134.196 479.585 133.087 478.222 132.41 476.648C131.733 475.074 131.564 473.347 131.885 471.477C132.207 469.606 133.096 467.685 134.543 465.73L145.132 451.375L150.667 455.463L140.933 468.658C139.571 470.503 138.995 472.137 139.181 473.559L139.173 473.542ZM124.547 462.75C124.75 464.189 125.537 465.408 126.909 466.424C127.772 467.059 128.711 467.431 129.719 467.532C130.726 467.634 131.708 467.456 132.656 467.016C133.604 466.576 134.442 465.857 135.169 464.875L136.583 466.331C135.093 468.353 133.392 469.784 131.488 470.622C129.575 471.46 127.696 471.798 125.851 471.629C124.005 471.46 122.423 470.884 121.111 469.919C119.587 468.802 118.495 467.448 117.818 465.874C117.141 464.299 116.964 462.573 117.294 460.702C117.615 458.832 118.504 456.91 119.951 454.955L130.54 440.6L136.033 444.654L126.299 457.85C124.937 459.695 124.361 461.328 124.573 462.767L124.547 462.75Z" fill="#E1E1F2"/>
<path d="M99.1131 448.26L126.993 423.012L131.615 428.116L103.734 453.364L99.1131 448.26ZM105.918 443.935C104.2 444.764 102.524 445.247 100.882 445.391C99.24 445.526 97.6911 445.323 96.2438 444.764C94.7965 444.206 93.493 443.3 92.3504 442.039C90.7338 440.253 89.7943 438.289 89.515 436.148C89.2356 433.998 89.5827 431.815 90.556 429.589C91.5294 427.363 93.1375 425.23 95.3805 423.198C97.6234 421.167 99.9172 419.762 102.253 418.992C104.598 418.221 106.815 418.078 108.931 418.56C111.039 419.042 112.901 420.177 114.517 421.963C116.058 423.664 116.938 425.551 117.15 427.633C117.361 429.715 116.955 431.857 115.914 434.066C114.881 436.275 113.239 438.399 110.996 440.431C109.329 441.946 107.636 443.114 105.918 443.943L105.918 443.935ZM96.4215 434.193C96.0914 436.165 96.667 437.976 98.1651 439.618C99.1554 440.719 100.273 441.421 101.5 441.726C102.727 442.039 104.031 441.946 105.402 441.455C106.773 440.964 108.153 440.084 109.549 438.814C111.682 436.884 112.926 434.921 113.265 432.94C113.612 430.951 113.036 429.14 111.547 427.498C110.556 426.398 109.431 425.704 108.195 425.407C106.951 425.111 105.647 425.204 104.276 425.704C102.905 426.194 101.508 427.092 100.086 428.378C97.9789 430.283 96.7601 432.229 96.43 434.201L96.4215 434.193Z" fill="#E1E1F2"/>
<path d="M90.5815 403.68C90.8608 402.216 90.5222 400.743 89.5574 399.254C88.9141 398.263 88.1269 397.536 87.1959 397.079C86.2648 396.621 85.2661 396.427 84.1997 396.478C83.1332 396.528 82.109 396.875 81.1103 397.519L80.3316 395.707C82.4053 394.362 84.4959 393.634 86.6119 393.524C88.7194 393.414 90.6153 393.778 92.3081 394.624C94.0009 395.47 95.3044 396.605 96.2354 398.035C97.3018 399.685 97.8859 401.387 97.9959 403.147C98.1059 404.908 97.6912 406.609 96.7517 408.251C95.8122 409.893 94.3225 411.383 92.2743 412.703L77.2592 422.437L73.5182 416.656L87.3229 407.709C89.2103 406.482 90.3022 405.145 90.5899 403.68L90.5815 403.68ZM90.8269 391.221L67.0263 406.643L63.3106 400.913L87.1113 385.491L90.8269 391.221Z" fill="#E1E1F2"/>
<path d="M76.5483 363.696L77.8094 366.354C78.5204 367.861 78.8843 369.333 78.9012 370.781C78.9097 372.228 78.5204 373.548 77.7163 374.75C76.9122 375.952 75.6426 376.959 73.9075 377.78L49.2266 389.478L46.3065 383.307L70.1834 371.991C71.3853 371.424 72.0963 370.815 72.3248 370.18C72.5533 369.537 72.4856 368.834 72.1216 368.064L71.2414 366.21L76.5483 363.696ZM50.9194 375.842L55.9724 373.447L62.9636 388.191L57.9106 390.586L50.9194 375.842Z" fill="#E1E1F2"/>
<path d="M52.1973 362.842C49.7767 362.427 47.686 361.42 45.934 359.803C44.1735 358.187 42.8701 356.045 42.0152 353.371C41.1688 350.73 41.0165 348.199 41.5666 345.795C42.1168 343.383 43.251 341.267 44.9692 339.431C46.6873 337.594 48.9049 336.248 51.6133 335.376L53.2977 334.835L59.8657 355.343L55.329 356.799L50.9955 343.265C49.7597 343.773 48.7779 344.475 48.0331 345.355C47.2883 346.236 46.8058 347.226 46.5942 348.318C46.3826 349.418 46.4673 350.561 46.8566 351.763C47.3052 353.176 48.0246 354.259 49.0149 355.038C49.9967 355.808 51.2324 356.232 52.7052 356.308C54.1864 356.375 55.9554 356.079 58.029 355.419C60.9152 354.496 62.9127 353.21 64.0384 351.568C65.1641 349.926 65.3588 347.979 64.6394 345.719C64.0977 344.027 63.2936 342.799 62.2356 342.029C61.1776 341.259 59.9757 340.954 58.6299 341.115L56.4124 334.191C59.6795 333.726 62.4388 334.335 64.7071 336.02C66.9754 337.704 68.6936 340.395 69.8785 344.094C70.7588 346.845 70.9535 349.418 70.4626 351.805C69.9717 354.2 68.8544 356.274 67.1108 358.034C65.3672 359.795 63.0566 361.141 60.1704 362.063C57.2842 362.986 54.635 363.248 52.2143 362.833L52.1973 362.842Z" fill="#E1E1F2"/>
<path d="M34.5162 320.835L62.4641 315.985L63.6406 322.765L35.7011 327.615L34.5246 320.835L34.5162 320.835ZM39.5945 312.177C39.84 313.598 40.3309 314.834 41.0503 315.892C41.7782 316.95 42.65 317.729 43.6741 318.228C44.6983 318.728 45.8071 318.871 47.0089 318.66L47.0089 320.632C44.3936 321.089 42.0491 321.013 39.9754 320.42C37.9017 319.819 36.2344 318.88 34.9648 317.602C33.6952 316.324 32.9249 314.936 32.671 313.438L32.3833 311.796L39.3152 310.594L39.5945 312.177Z" fill="#E1E1F2"/>
<path d="M36.4629 283.17C35.608 282.654 34.9225 281.977 34.4062 281.122C33.8899 280.276 33.6275 279.328 33.619 278.295C33.619 277.22 33.873 276.264 34.3808 275.409C34.8971 274.554 35.5742 273.868 36.4291 273.352C37.2754 272.827 38.2319 272.565 39.3068 272.565C40.3394 272.565 41.2958 272.819 42.1592 273.335C43.0309 273.852 43.725 274.537 44.2413 275.384C44.766 276.23 45.02 277.195 45.0284 278.27C45.0284 279.311 44.7745 280.25 44.2582 281.105C43.7419 281.96 43.0563 282.646 42.1845 283.17C41.3212 283.695 40.3648 283.949 39.3322 283.958C38.2657 283.958 37.3009 283.704 36.446 283.187L36.4629 283.17Z" fill="#E1E1F2"/>
</g>
<circle cx="276.342" cy="277.19" r="193.587" fill="#32334A"/>
<path fill-rule="evenodd" clip-rule="evenodd" d="M553.771 277C553.771 429.857 429.857 553.771 277 553.771C124.144 553.771 0.228882 429.857 0.228882 277C0.228882 124.144 124.144 0.229004 277 0.229004C429.857 0.229004 553.771 124.144 553.771 277ZM277 547C426.117 547 547 426.117 547 277C547 127.883 426.117 7.00016 277 7.00016C127.883 7.00016 7.00004 127.883 7.00004 277C7.00004 426.117 127.883 547 277 547Z" fill="#32334A"/>
<defs>
<clipPath id="clip0_739_5948">
<rect width="489.132" height="493.838" fill="white" transform="translate(32.3918 30.6992)"/>
</clipPath>
<clipPath id="clip1_739_5948">
<rect width="489.132" height="493.838" fill="white" transform="translate(521.523 524.537) rotate(-180)"/>
</clipPath>
</defs>
</svg>
